<svg xmlns="http://www.w3.org/2000/svg" width="1200" height="630" viewBox="0 0 1200 630">
  <defs>
    <linearGradient id="pch" x1="0" y1="0" x2="1" y2="0"><stop offset="0" stop-color="#0B0D11" stop-opacity="0.94"/>
       <stop offset="0.52" stop-color="#0B0D11" stop-opacity="0.72"/>
       <stop offset="1" stop-color="#0B0D11" stop-opacity="0.28"/></linearGradient>
    <linearGradient id="pcfoot" x1="0" y1="0" x2="0" y2="1">
      <stop offset="0" stop-color="#0B0D11" stop-opacity="0"/>
      <stop offset="1" stop-color="#0B0D11" stop-opacity="0.92"/>
    </linearGradient>
    <clipPath id="pcclip"><rect x="0" y="0" width="1200" height="630"/></clipPath>
  </defs>
  <rect width="1200" height="630" fill="#0B0D11"/>
  
  <rect width="1200" height="630" fill="url(#pch)"/>
  

  <g transform="translate(58,38) scale(0.58)">
  <g>
    <defs>
      <clipPath id="ogLpc"><polygon points="60,16 52,46 58,72 50,104 8,104"/></clipPath>
      <clipPath id="ogRpc"><polygon points="60,16 112,104 50,104 58,72 52,46"/></clipPath>
    </defs>
    <polygon points="60,16 52,46 58,72 50,104 8,104" fill="#D8404B"/>
    <g clip-path="url(#ogLpc)" stroke="#A32A34" stroke-width="1.6" fill="none" opacity="0.55">
      <path d="M30,60 L55,52"/><path d="M24,72 L56,64"/><path d="M18,84 L53,80"/><path d="M13,96 L51,94"/>
    </g>
    <polygon points="60,16 112,104 50,104 58,72 52,46" fill="#3D74C4"/>
    <g clip-path="url(#ogRpc)" stroke="#2A5793" stroke-width="1.6" fill="none" opacity="0.5">
      <path d="M65,52 L95,58"/><path d="M60,64 L100,70"/><path d="M56,78 L104,82"/><path d="M52,92 L108,94"/>
    </g>
    <polygon points="60,16 52,30 68,30" fill="#F4F0E6"/>
  </g></g>
  <text x="134" y="86" font-family="'Public Sans', 'Noto Sans Devanagari', 'Helvetica Neue', Helvetica, Arial, sans-serif" font-size="24" font-weight="800"
    letter-spacing="3.4" fill="#F4F0E6">NEPAL DISASTER UPDATE</text>
  <text x="134" y="115" font-family="'Public Sans', 'Noto Sans Devanagari', 'Helvetica Neue', Helvetica, Arial, sans-serif" font-size="18"
    letter-spacing="2.6" fill="#B9B4A6">BRIEFING</text>
  

  <text x="66" y="250"
    font-family="Newsreader, 'Noto Serif Devanagari', Georgia, 'Times New Roman', serif" font-size="60" font-weight="600" fill="#FFFFFF"
    >Latest reported figures:</text><text x="66" y="318"
    font-family="Newsreader, 'Noto Serif Devanagari', Georgia, 'Times New Roman', serif" font-size="60" font-weight="600" fill="#FFFFFF"
    >1,252 confirmed dead</text>
  

  
  <rect x="66" y="530" width="1068" height="1" fill="rgba(244,240,230,0.20)"/>
  <text x="66" y="574" font-family="'Public Sans', 'Noto Sans Devanagari', 'Helvetica Neue', Helvetica, Arial, sans-serif" font-size="21" fill="#B9B4A6"
    >nepaldisasterupdatelive.nxtimaginelabs.com</text>
  <text x="1134" y="574" text-anchor="end" font-family="'Public Sans', 'Noto Sans Devanagari', 'Helvetica Neue', Helvetica, Arial, sans-serif" font-size="20"
    font-weight="700" letter-spacing="1.2" fill="#F4F0E6"
    >PUBLISHED 3 SEP, 10:00 AM NPT</text>

  <rect x="0" y="622" width="1200" height="8" fill="#D8404B"/>
</svg>